<svg width="10" height="8" viewBox="0 0 10 8" fill="none" xmlns="http://www.w3.org/2000/svg">
<path d="M3.33333 1.50027L8.75 1.50057M3.33333 4.00028L8.75 4.00061M3.33333 6.50028L8.75 6.50061M1.45833 1.49999H1.4625M1.45833 3.99999H1.4625M1.45833 6.49999H1.4625M1.66667 1.49999C1.66667 1.61505 1.57339 1.70832 1.45833 1.70832C1.34327 1.70832 1.25 1.61505 1.25 1.49999C1.25 1.38493 1.34327 1.29166 1.45833 1.29166C1.57339 1.29166 1.66667 1.38493 1.66667 1.49999ZM1.66667 3.99999C1.66667 4.11503 1.57339 4.20832 1.45833 4.20832C1.34327 4.20832 1.25 4.11503 1.25 3.99999C1.25 3.88495 1.34327 3.79166 1.45833 3.79166C1.57339 3.79166 1.66667 3.88495 1.66667 3.99999ZM1.66667 6.49999C1.66667 6.61503 1.57339 6.70832 1.45833 6.70832C1.34327 6.70832 1.25 6.61503 1.25 6.49999C1.25 6.38495 1.34327 6.29166 1.45833 6.29166C1.57339 6.29166 1.66667 6.38495 1.66667 6.49999Z" stroke="white" stroke-linecap="round" stroke-linejoin="round"/>
</svg>
